<svg width="22" height="23" viewBox="0 0 22 23" fill="none" xmlns="http://www.w3.org/2000/svg">
<path fill-rule="evenodd" clip-rule="evenodd" d="M10.7846 1.58801C10.8844 1.47066 11.0656 1.47066 11.1655 1.58802L19.977 11.9464C20.1151 12.1088 19.9997 12.3584 19.7865 12.3584H19.1576C18.4672 12.3584 17.9076 12.9181 17.9076 13.6084V21.1567C17.9076 21.2948 17.7956 21.4067 17.6576 21.4067H14.075V21.3705V16.6205C14.075 15.5159 13.1796 14.6205 12.075 14.6205H9.88C8.77543 14.6205 7.88 15.5159 7.88 16.6205V21.3705V21.4067H4.29251C4.15444 21.4067 4.04251 21.2948 4.04251 21.1567V13.6084C4.04251 12.9181 3.48286 12.3584 2.79251 12.3584H2.16353C1.95038 12.3584 1.835 12.1088 1.97311 11.9464L10.7846 1.58801ZM12.308 0.616104C11.6092 -0.205365 10.3409 -0.20537 9.64208 0.616103L0.830569 10.9745C-0.136182 12.111 0.671492 13.8584 2.16353 13.8584H2.54251V21.1567C2.54251 22.1232 3.32601 22.9067 4.29251 22.9067H17.6576C18.6241 22.9067 19.4076 22.1232 19.4076 21.1567V13.8584H19.7865C21.2786 13.8584 22.0863 12.111 21.1195 10.9745L12.308 0.616104ZM9.38 16.6205C9.38 16.3443 9.60386 16.1205 9.88 16.1205H12.075C12.3512 16.1205 12.575 16.3443 12.575 16.6205V19.8705V21.3705H11.075H10.88H9.38V19.8705V16.6205Z" fill="#252424"/>
</svg>
